<?xml version="1.0" standalone="no"?><!DOCTYPE svg PUBLIC "-//W3C//DTD SVG 1.1//EN" "http://www.w3.org/Graphics/SVG/1.1/DTD/svg11.dtd"><svg t="1687936404122" class="icon" viewBox="0 0 1365 1024" version="1.1" xmlns="http://www.w3.org/2000/svg" p-id="2125" xmlns:xlink="http://www.w3.org/1999/xlink" width="266.6015625" height="200"><path d="M1.117091 311.109818a62.060606 62.060606 0 0 1 60.974545-73.69697h1225.231516a62.060606 62.060606 0 0 1 60.974545 73.69697l-126.448485 662.372849a62.060606 62.060606 0 0 1-60.943515 50.424242H188.788364a62.060606 62.060606 0 0 1-60.943516-50.393212L1.117091 311.109818z" fill="#C1D0FF" p-id="2126"></path><path d="M155.67903 31.030303a31.030303 31.030303 0 0 1 31.030303-31.030303h262.671515a31.030303 31.030303 0 0 1 22.714182 9.867636l124.959031 133.988849a31.030303 31.030303 0 0 0 22.652121 9.867636h528.942545a31.030303 31.030303 0 0 1 31.030303 31.030303V620.606061a31.030303 31.030303 0 0 1-31.030303 31.030303h-961.939394a31.030303 31.030303 0 0 1-31.030303-31.030303V31.030303z" fill="#0F62FE" p-id="2127"></path><path d="M1.117091 311.109818A62.060606 62.060606 0 0 1 62.091636 237.381818h1225.231516a62.060606 62.060606 0 0 1 60.974545 73.69697l-126.448485 662.403879a62.060606 62.060606 0 0 1-60.943515 50.424242H188.788364a62.060606 62.060606 0 0 1-60.943516-50.393212L1.117091 311.109818z" fill="#E8E8E8" fill-opacity=".1" p-id="2128"></path><path d="M1287.323152 268.412121a31.030303 31.030303 0 0 1 30.471757 36.83297l-126.417454 662.403879a31.030303 31.030303 0 0 1-30.471758 25.227636H188.788364a31.030303 31.030303 0 0 1-30.471758-25.196606L31.588848 305.276121a31.030303 31.030303 0 0 1 30.502788-36.864h1225.231516z m-1225.231516-31.030303a62.060606 62.060606 0 0 0-60.974545 73.728L127.844848 973.513697a62.060606 62.060606 0 0 0 60.943516 50.393212h972.117333a62.060606 62.060606 0 0 0 60.943515-50.424242l126.448485-662.403879a62.060606 62.060606 0 0 0-60.974545-73.69697H62.091636z" fill="#FFFFFF" fill-opacity=".6" p-id="2129"></path><path d="M279.800242 512a46.545455 46.545455 0 0 1 46.545455-46.545455h620.606061a46.545455 46.545455 0 0 1 0 93.09091h-620.606061a46.545455 46.545455 0 0 1-46.545455-46.545455z" fill="#FFFFFF" p-id="2130"></path><path d="M279.800242 760.242424a46.545455 46.545455 0 0 1 46.545455-46.545454h620.606061a46.545455 46.545455 0 0 1 0 93.090909h-620.606061a46.545455 46.545455 0 0 1-46.545455-46.545455z" fill="#FFFFFF" p-id="2131"></path></svg>